<svg xmlns="http://www.w3.org/2000/svg" viewBox="0 0 100 100" fill="#007bff">
  <circle cx="50" cy="50" r="45" fill="#e6f2ff" />
  <path d="M50 10C28.42 10 11 27.42 11 49s17.42 39 39 39 39-17.42 39-39S71.58 10 50 10zm0 70c-17.1 0-31-13.9-31-31s13.9-31 31-31 31 13.9 31 31-13.9 31-31 31z" fill="#007bff"/>
  <circle cx="50" cy="50" r="8" fill="#007bff" />
  <path d="M50 25c-2.76 0-5-2.24-5-5V15c0-2.76 2.24-5 5-5s5 2.24 5 5v5c0 2.76-2.24 5-5 5zM75 50c0-2.76 2.24-5 5-5h5c2.76 0 5 2.24 5 5s-2.24 5-5 5h-5c-2.76 0-5-2.24-5-5zM50 75c2.76 0 5 2.24 5 5v5c0 2.76-2.24 5-5 5s-5-2.24-5-5v-5c0-2.76 2.24-5 5-5zM25 50c0 2.76-2.24 5-5 5h-5c-2.76 0-5-2.24-5-5s2.24-5 5-5h5c2.76 0 5 2.24 5 5z" fill="#007bff"/>
  <path d="M67.93 32.07c-1.95-1.95-1.95-5.12 0-7.07l3.54-3.54c1.95-1.95 5.12-1.95 7.07 0 1.95 1.95 1.95 5.12 0 7.07l-3.54 3.54c-1.95 1.95-5.12 1.95-7.07 0zM67.93 67.93c1.95-1.95 5.12-1.95 7.07 0l3.54 3.54c1.95 1.95 1.95 5.12 0 7.07-1.95 1.95-5.12 1.95-7.07 0l-3.54-3.54c-1.95-1.95-1.95-5.12 0-7.07zM32.07 67.93c-1.95-1.95-5.12-1.95-7.07 0l-3.54 3.54c-1.95 1.95-1.95 5.12 0 7.07 1.95 1.95 5.12 1.95 7.07 0l3.54-3.54c1.95-1.95 1.95-5.12 0-7.07zM32.07 32.07c1.95-1.95 1.95-5.12 0-7.07l-3.54-3.54c-1.95-1.95-5.12-1.95-7.07 0-1.95 1.95-1.95 5.12 0 7.07l3.54 3.54c1.95 1.95 5.12 1.95 7.07 0z" fill="#007bff"/>
</svg> 